<?xml version="1.0" encoding="UTF-8" standalone="no"?>
<!-- Created with Inkscape (http://www.inkscape.org/) -->

<svg
   width="165.15381mm"
   height="165.15381mm"
   viewBox="0 0 165.15381 165.15381"
   version="1.1"
   id="svg5"
   inkscape:version="1.1.2 (0a00cf5339, 2022-02-04)"
   sodipodi:docname="circle_button_instagram.svg"
   xmlns:inkscape="http://www.inkscape.org/namespaces/inkscape"
   xmlns:sodipodi="http://sodipodi.sourceforge.net/DTD/sodipodi-0.dtd"
   xmlns="http://www.w3.org/2000/svg"
   xmlns:svg="http://www.w3.org/2000/svg">
  <sodipodi:namedview
     id="namedview7"
     pagecolor="#ffffff"
     bordercolor="#666666"
     borderopacity="1.0"
     inkscape:pageshadow="2"
     inkscape:pageopacity="0.0"
     inkscape:pagecheckerboard="0"
     inkscape:document-units="mm"
     showgrid="false"
     inkscape:zoom="0.64052329"
     inkscape:cx="330.19877"
     inkscape:cy="276.33656"
     inkscape:window-width="1920"
     inkscape:window-height="947"
     inkscape:window-x="0"
     inkscape:window-y="32"
     inkscape:window-maximized="1"
     inkscape:current-layer="layer1" />
  <defs
     id="defs2">
    <style
       id="style936">.cls-1{fill:#fff;}</style>
  </defs>
  <g
     inkscape:label="Layer 1"
     inkscape:groupmode="layer"
     id="layer1"
     transform="translate(-17.899879,-75.385529)">
    <circle
       style="fill:#1c1d20;stroke-width:0.491001;fill-opacity:1"
       id="path961"
       cx="100.47678"
       cy="157.96243"
       r="82.576904" />
    <path
       class="cls-1"
       d="m 80.284159,112.59189 c -4.868193,0.22968 -8.192656,1.00658 -11.09893,2.14859 -3.007848,1.17221 -5.557243,2.74522 -8.093827,5.29096 -2.536585,2.54573 -4.098616,5.09696 -5.26259,8.10938 -1.126456,2.91268 -1.889628,6.23989 -2.10467,11.11082 -0.215041,4.87094 -0.262625,6.43664 -0.238834,18.86151 0.02379,12.42486 0.07869,13.98232 0.314786,18.86332 0.232428,4.86729 1.00658,8.19083 2.148592,11.09802 1.17404,3.00785 2.745222,5.55633 5.291873,8.09383 2.54665,2.53749 5.096045,4.09587 8.115789,5.26167 2.909934,1.12462 6.238057,1.89146 11.10808,2.10466 4.870024,0.21322 6.437542,0.26264 18.858755,0.23885 12.421217,-0.0238 13.985077,-0.0787 18.865167,-0.31021 4.88008,-0.23152 8.18625,-1.01116 11.09435,-2.14768 3.00785,-1.17679 5.55816,-2.74522 8.09383,-5.29279 2.53567,-2.54756 4.09678,-5.10062 5.25984,-8.11488 1.12737,-2.90993 1.89329,-6.23806 2.10467,-11.10442 0.21322,-4.88374 0.26354,-6.44303 0.23975,-18.86606 -0.0238,-12.42306 -0.0797,-13.9805 -0.31112,-18.85968 -0.23152,-4.87917 -1.00659,-8.19266 -2.14768,-11.10168 -1.17587,-3.00783 -2.74523,-5.55449 -5.29096,-8.09382 -2.54573,-2.53933 -5.10062,-4.09953 -8.11396,-5.25985 -2.91176,-1.12645 -6.23806,-1.8942 -11.10808,-2.10466 -4.87003,-0.21047 -6.43754,-0.26446 -18.863328,-0.24066 -12.425794,0.0238 -13.98141,0.0769 -18.861503,0.31478 m 0.534403,82.71168 c -4.460985,-0.19399 -6.883185,-0.93521 -8.497376,-1.55562 -2.137612,-0.82356 -3.660294,-1.81917 -5.268993,-3.41232 -1.608701,-1.59314 -2.59698,-3.12131 -3.431528,-5.25434 -0.626825,-1.61419 -1.381761,-4.03365 -1.590398,-8.49463 -0.226938,-4.82153 -0.274522,-6.26918 -0.301059,-18.48449 -0.02654,-12.21532 0.02013,-13.66114 0.231514,-18.48449 0.190335,-4.45733 0.93612,-6.88227 1.555625,-8.49555 0.823567,-2.14035 1.815506,-3.6603 3.41231,-5.26808 1.596804,-1.60779 3.120402,-2.59789 5.255269,-3.43244 1.61236,-0.62957 4.031815,-1.3781 8.490969,-1.5904 4.825188,-0.22877 6.270998,-0.27452 18.484488,-0.30106 12.213497,-0.0266 13.662977,0.0192 18.489987,0.23151 4.45732,0.19401 6.88318,0.93246 8.49462,1.55563 2.13854,0.82357 3.6603,1.81276 5.26808,3.41231 1.60779,1.59955 2.59881,3.11766 3.43337,5.2571 0.63048,1.60778 1.37901,4.02632 1.58947,8.48822 0.22969,4.82519 0.28185,6.27192 0.30381,18.4845 0.022,12.21257 -0.0211,13.66296 -0.23243,18.48448 -0.1949,4.46099 -0.93429,6.8841 -1.55563,8.50012 -0.82356,2.1367 -1.81641,3.6603 -3.41413,5.26717 -1.59772,1.60687 -3.11949,2.59698 -5.25527,3.43153 -1.61053,0.62865 -4.03273,1.37902 -8.48823,1.59131 -4.82518,0.22693 -6.271,0.27452 -18.489068,0.30106 -12.218061,0.0265 -13.6593,-0.0229 -18.484485,-0.23152 m 37.298403,-61.73179 a 5.4904426,5.4904426 0 1 0 5.47947,-5.49959 5.4904426,5.4904426 0 0 0 -5.47947,5.49959 m -42.377063,24.49928 c 0.02562,12.97573 10.563616,23.47072 23.536613,23.44602 12.973,-0.0248 23.4753,-10.56179 23.4506,-23.53754 -0.0247,-12.97574 -10.56545,-23.47346 -23.540275,-23.44785 -12.974838,0.0256 -23.471644,10.56545 -23.446938,23.53937 m 8.241154,-0.0165 A 15.251534,15.251534 0 1 1 99.26371,173.27592 15.249704,15.249704 0 0 1 83.981971,158.05458"
       id="path940"
       style="stroke-width:0.0915073;fill:#ecb847;fill-opacity:1" />
  </g>
</svg>
