<svg xmlns="http://www.w3.org/2000/svg" viewBox="0 0 512 512"><defs><style>.cls-1{fill:#5f6ceb;}.cls-2{fill:#6775f8;}.cls-2,.cls-3,.cls-4,.cls-5,.cls-6,.cls-7,.cls-8,.cls-9{stroke:#000;stroke-width:14.69px;}.cls-3{fill:#bd83cf;}.cls-4{fill:#f39a4a;}.cls-5{fill:#3fbe87;}.cls-6{fill:#ff7575;}.cls-7{fill:#f2c94d;}.cls-8{fill:#88cfaf;}.cls-9{fill:#37c2e1;}</style></defs><g id="Layer_1" data-name="Layer 1"><rect class="cls-1" width="512" height="512"/></g><g id="Layer_2" data-name="Layer 2"><rect class="cls-2" x="205.5" y="105" width="101.25" height="102.5"/><rect class="cls-3" x="205.5" y="207.5" width="101.25" height="102.5"/><rect class="cls-4" x="105.5" y="207.5" width="101.25" height="102.5"/><path class="cls-5" d="M206.75,114.2V105H161.89a56.39,56.39,0,0,0-56.39,56.39V207.5H206.75V114.2Z"/><path class="cls-6" d="M314.7,105h-9.2V207.5H406.75V161.39A56.39,56.39,0,0,0,350.36,105Z"/><path class="cls-7" d="M314.7,207.5h-9.2V310h50.1a51.15,51.15,0,0,0,51.15-51.15V207.5H314.7Z"/><path class="cls-8" d="M114.7,310h-9.2v35.86a61.64,61.64,0,0,0,61.64,61.64h39.61V310h-92Z"/><path class="cls-9" d="M214.7,310h-9.2v97.5h39.61a61.64,61.64,0,0,0,61.64-61.64V310H214.7Z"/></g></svg>