<?xml version="1.0" encoding="UTF-8" standalone="no"?>
<!-- Created with Inkscape (http://www.inkscape.org/) -->

<svg
   width="110.99644mm"
   height="110.99644mm"
   viewBox="0 0 110.99643 110.99643"
   version="1.1"
   id="svg1075"
   inkscape:version="1.1.2 (0a00cf5339, 2022-02-04)"
   sodipodi:docname="blacklemon.svg"
   xmlns:inkscape="http://www.inkscape.org/namespaces/inkscape"
   xmlns:sodipodi="http://sodipodi.sourceforge.net/DTD/sodipodi-0.dtd"
   xmlns="http://www.w3.org/2000/svg"
   xmlns:svg="http://www.w3.org/2000/svg">
  <sodipodi:namedview
     id="namedview1077"
     pagecolor="#ffffff"
     bordercolor="#666666"
     borderopacity="1.0"
     inkscape:pageshadow="2"
     inkscape:pageopacity="0.0"
     inkscape:pagecheckerboard="0"
     inkscape:document-units="mm"
     showgrid="false"
     inkscape:snap-object-midpoints="true"
     inkscape:zoom="1.2810466"
     inkscape:cx="209.59425"
     inkscape:cy="192.8111"
     inkscape:window-width="1920"
     inkscape:window-height="947"
     inkscape:window-x="0"
     inkscape:window-y="32"
     inkscape:window-maximized="1"
     inkscape:current-layer="layer1" />
  <defs
     id="defs1072" />
  <g
     inkscape:label="Layer 1"
     inkscape:groupmode="layer"
     id="layer1"
     transform="translate(-26.167746,-40.435432)">
    <rect
       style="fill:#ffffff;stroke:none;stroke-width:18.5208"
       id="rect1390"
       width="110.99644"
       height="110.99644"
       x="26.167746"
       y="40.435432" />
    <g
       vector-effect="non-scaling-stroke"
       id="g67"
       transform="matrix(0.12972877,0,0,0.12972877,81.665965,95.933651)">
		<g
   id="Layer_1"
   style="fill:#09090b;fill-opacity:0;stroke:#09090b;stroke-width:36.504;stroke-miterlimit:4;stroke-dasharray:none;stroke-opacity:1"
   transform="scale(0.92905513)">
<path
   style="opacity:1;fill:#09090b;fill-opacity:0;fill-rule:nonzero;stroke:#09090b;stroke-width:36.504;stroke-linecap:butt;stroke-linejoin:miter;stroke-miterlimit:4;stroke-dasharray:none;stroke-dashoffset:0;stroke-opacity:1"
   transform="translate(-256,-256)"
   d="M 256,512 C 187.62,512 123.332,485.371 74.981,437.019 26.628,388.668 0,324.38 0,255.999 0,187.618 26.628,123.332 74.981,74.981 123.334,26.63 187.62,0 256,0 324.379,0 388.667,26.629 437.02,74.981 485.371,123.332 512,187.62 512,255.999 c 0,68.38 -26.629,132.669 -74.981,181.02 C 388.667,485.371 324.38,512 256,512 Z"
   stroke-linecap="round"
   id="path8" />

</g>

		
		<g
   id="g17"
   transform="translate(-778.06516,64.132445)">

</g>

		
		<g
   transform="translate(0.2994,-113.3842)"
   id="g25"
   style="fill:#09090b;fill-opacity:1">
<path
   style="opacity:1;fill:#09090b;fill-opacity:1;fill-rule:nonzero;stroke:none;stroke-width:1;stroke-linecap:butt;stroke-linejoin:miter;stroke-miterlimit:4;stroke-dasharray:none;stroke-dashoffset:0"
   transform="translate(-256.2994,-142.6158)"
   d="m 313.074,81.084 c -8.476,-9.061 -27.877,-24.816 -57.075,-24.816 -28.948,0 -48.037,15.099 -56.454,23.797 -0.281,0.351 -4.791,6.19 -1.269,14.703 l 53.41,129.053 v 0 c 0,0 4.763,11.571 9.561,0 L 314.491,95.423 c 3.296,-8.541 -1.417,-14.339 -1.417,-14.339 z"
   stroke-linecap="round"
   id="path23" />

</g>

		<g
   transform="translate(-92.659,-93.2149)"
   id="g29"
   style="fill:#09090b;fill-opacity:1">
<path
   style="opacity:1;fill:#09090b;fill-opacity:1;fill-rule:nonzero;stroke:none;stroke-width:1;stroke-linecap:butt;stroke-linejoin:miter;stroke-miterlimit:4;stroke-dasharray:none;stroke-dashoffset:0"
   transform="translate(-163.341,-162.7851)"
   d="m 171.122,90.14 c -12.401,-0.414 -37.26,2.164 -57.906,22.811 -20.47,20.47 -23.291,44.643 -23.092,56.745 0.05,0.447 0.988,7.765 9.499,11.293 l 129.021,53.487 v 0 c 0,0 11.55,4.815 6.76,-6.76 L 182.263,99.276 c -3.71,-8.368 -11.141,-9.136 -11.141,-9.136 z"
   stroke-linecap="round"
   id="path27" />

</g>

		
		<g
   transform="translate(-113.4192,0.2797)"
   id="g37"
   style="fill:#09090b;fill-opacity:1">
<path
   style="opacity:1;fill:#09090b;fill-opacity:1;fill-rule:nonzero;stroke:none;stroke-width:1;stroke-linecap:butt;stroke-linejoin:miter;stroke-miterlimit:4;stroke-dasharray:none;stroke-dashoffset:0"
   transform="translate(-142.5808,-256.2797)"
   d="m 81.049,199.505 c -9.061,8.476 -24.816,27.877 -24.816,57.075 0,28.948 15.099,48.037 23.797,56.454 0.351,0.281 6.19,4.791 14.703,1.268 l 129.053,-53.41 v 0 c 0,0 11.571,-4.763 0,-9.561 L 95.387,198.088 c -8.541,-3.295 -14.338,1.417 -14.338,1.417 z"
   stroke-linecap="round"
   id="path35" />

</g>

		
		<g
   transform="translate(-93.2069,92.672)"
   id="g45"
   style="fill:#09090b;fill-opacity:1">
<path
   style="opacity:1;fill:#09090b;fill-opacity:1;fill-rule:nonzero;stroke:none;stroke-width:1;stroke-linecap:butt;stroke-linejoin:miter;stroke-miterlimit:4;stroke-dasharray:none;stroke-dashoffset:0"
   transform="translate(-162.7931,-348.672)"
   d="m 90.148,340.891 c -0.414,12.401 2.164,37.26 22.811,57.906 20.47,20.47 44.643,23.291 56.745,23.092 0.447,-0.05 7.765,-0.988 11.293,-9.499 l 53.487,-129.021 v 0 c 0,0 4.815,-11.55 -6.76,-6.76 L 99.284,329.75 c -8.37,3.709 -9.136,11.141 -9.136,11.141 z"
   stroke-linecap="round"
   id="path43" />

</g>

		
		<g
   transform="translate(0.2007,113.3846)"
   id="g53"
   style="fill:#09090b;fill-opacity:1">
<path
   style="opacity:1;fill:#09090b;fill-opacity:1;fill-rule:nonzero;stroke:none;stroke-width:1;stroke-linecap:butt;stroke-linejoin:miter;stroke-miterlimit:4;stroke-dasharray:none;stroke-dashoffset:0"
   transform="translate(-256.2007,-369.3847)"
   d="m 199.426,430.916 c 8.476,9.061 27.877,24.816 57.075,24.816 28.948,0 48.037,-15.099 56.454,-23.796 0.281,-0.351 4.791,-6.19 1.268,-14.703 L 260.813,288.18 v 0 c 0,0 -4.763,-11.571 -9.561,0 l -53.244,128.398 c -3.293,8.54 1.418,14.338 1.418,14.338 z"
   stroke-linecap="round"
   id="path51" />

</g>

		<g
   transform="translate(92.66,93.2149)"
   id="g57"
   style="fill:#09090b;fill-opacity:1">
<path
   style="opacity:1;fill:#09090b;fill-opacity:1;fill-rule:nonzero;stroke:none;stroke-width:1;stroke-linecap:butt;stroke-linejoin:miter;stroke-miterlimit:4;stroke-dasharray:none;stroke-dashoffset:0"
   transform="translate(-348.66,-349.2149)"
   d="m 340.879,421.86 c 12.401,0.414 37.26,-2.164 57.906,-22.811 20.47,-20.47 23.291,-44.643 23.092,-56.745 -0.05,-0.447 -0.988,-7.765 -9.499,-11.293 L 283.357,277.524 v 0 c 0,0 -11.55,-4.815 -6.76,6.76 l 53.141,128.44 c 3.711,8.368 11.141,9.136 11.141,9.136 z"
   stroke-linecap="round"
   id="path55" />

</g>

		<g
   transform="translate(113.3816,0.196)"
   id="g61"
   style="fill:#09090b;fill-opacity:1">
<path
   style="opacity:1;fill:#09090b;fill-opacity:1;fill-rule:nonzero;stroke:none;stroke-width:1;stroke-linecap:butt;stroke-linejoin:miter;stroke-miterlimit:4;stroke-dasharray:none;stroke-dashoffset:0"
   transform="translate(-369.3817,-256.1959)"
   d="m 430.913,312.971 c 9.061,-8.476 24.816,-27.877 24.816,-57.075 0,-28.948 -15.099,-48.037 -23.796,-56.454 -0.351,-0.281 -6.19,-4.791 -14.703,-1.269 l -129.053,53.41 v 0 c 0,0 -11.571,4.763 0,9.561 l 128.398,53.244 c 8.541,3.294 14.338,-1.417 14.338,-1.417 z"
   stroke-linecap="round"
   id="path59" />

</g>

		<g
   transform="translate(93.2039,-92.672)"
   id="g65"
   style="fill:#f7ce33;fill-opacity:1">
<path
   style="opacity:1;fill:#f7ce33;fill-opacity:1;fill-rule:nonzero;stroke:none;stroke-width:1;stroke-linecap:butt;stroke-linejoin:miter;stroke-miterlimit:4;stroke-dasharray:none;stroke-dashoffset:0"
   transform="translate(-349.2039,-163.328)"
   d="m 421.849,171.109 c 0.414,-12.401 -2.164,-37.26 -22.811,-57.906 -20.47,-20.47 -44.643,-23.291 -56.745,-23.092 -0.447,0.05 -7.765,0.988 -11.293,9.499 l -53.487,129.021 v 0 c 0,0 -4.815,11.55 6.76,6.76 l 128.44,-53.141 c 8.368,-3.709 9.136,-11.141 9.136,-11.141 z"
   stroke-linecap="round"
   id="path63" />

</g>

</g>
  </g>
</svg>
